<svg width="36" height="36" viewBox="0 0 36 36" fill="none" xmlns="http://www.w3.org/2000/svg">
<g id="icon/basic">
<path id="Vector" d="M17.375 30.447L17.366 30.4416L17.3318 30.4236C16.6215 30.0371 15.9239 29.6277 15.2402 29.196C13.6101 28.1703 12.0568 27.0273 10.5926 25.776C7.28061 22.9194 3.59961 18.6336 3.59961 13.5C3.59977 11.825 4.11918 10.1913 5.08632 8.82375C6.05346 7.45621 7.42077 6.42212 8.99997 5.86388C10.5792 5.30563 12.2926 5.25067 13.9043 5.70658C15.5161 6.16249 16.9468 7.10683 17.9996 8.40959C19.0524 7.10683 20.4832 6.16249 22.0949 5.70658C23.7066 5.25067 25.42 5.30563 26.9992 5.86388C28.5784 6.42212 29.9458 7.45621 30.9129 8.82375C31.88 10.1913 32.3995 11.825 32.3996 13.5C32.3996 18.6336 28.7204 22.9194 25.4066 25.776C23.3264 27.5533 21.068 29.1108 18.6674 30.4236L18.6332 30.4416L18.6242 30.447H18.6206C18.4294 30.5483 18.2163 30.6014 17.9998 30.6017C17.7834 30.6021 17.5702 30.5496 17.3786 30.4488L17.375 30.447Z" fill="#CF4FA9"/>
</g>
</svg>
