<svg width="16" height="17" viewBox="0 0 16 17" fill="none" xmlns="http://www.w3.org/2000/svg">
<path d="M8.252 1.56803C8.17552 1.5234 8.08855 1.49988 8 1.49988C7.91145 1.49988 7.82448 1.5234 7.748 1.56803L2 4.92136L8 8.42136L14 4.92136L8.252 1.56803ZM14.5 5.78669L8.5 9.28669V15.2867L14.252 11.932C14.3275 11.888 14.3901 11.8249 14.4336 11.7491C14.4771 11.6733 14.5 11.5874 14.5 11.5V5.78669ZM7.5 15.2867V9.28669L1.5 5.78669V11.5C1.49997 11.5874 1.52286 11.6733 1.56637 11.7491C1.60989 11.8249 1.67251 11.888 1.748 11.932L7.5 15.2874V15.2867Z" fill="#FFE1EA"/>
</svg>
