<svg width="16" height="17" viewBox="0 0 16 17" fill="none" xmlns="http://www.w3.org/2000/svg">
<path fill-rule="evenodd" clip-rule="evenodd" d="M5.00039 4.5C5.00039 3.70435 5.31646 2.94129 5.87907 2.37868C6.44168 1.81607 7.20474 1.5 8.00039 1.5C8.79604 1.5 9.5591 1.81607 10.1217 2.37868C10.6843 2.94129 11.0004 3.70435 11.0004 4.5C11.0004 5.29565 10.6843 6.05871 10.1217 6.62132C9.5591 7.18393 8.79604 7.5 8.00039 7.5C7.20474 7.5 6.44168 7.18393 5.87907 6.62132C5.31646 6.05871 5.00039 5.29565 5.00039 4.5ZM2.50106 13.9033C2.52354 12.4596 3.11282 11.0827 4.1417 10.0697C5.17058 9.05674 6.55653 8.48897 8.00039 8.48897C9.44425 8.48897 10.8302 9.05674 11.8591 10.0697C12.888 11.0827 13.4772 12.4596 13.4997 13.9033C13.5015 14.0005 13.4748 14.0961 13.4231 14.1784C13.3713 14.2607 13.2967 14.3261 13.2084 14.3667C11.5745 15.1158 9.79783 15.5024 8.00039 15.5C6.14306 15.5 4.37839 15.0947 2.79239 14.3667C2.70405 14.3261 2.62944 14.2607 2.5777 14.1784C2.52596 14.0961 2.49932 14.0005 2.50106 13.9033Z" fill="#FFE1EA"/>
</svg>
