<svg width="16" height="17" viewBox="0 0 16 17" fill="none" xmlns="http://www.w3.org/2000/svg">
<path d="M7.72201 14.0321L7.71801 14.0297L7.70281 14.0217C7.38712 13.8499 7.07709 13.6679 6.77321 13.476C6.0487 13.0202 5.35834 12.5122 4.70761 11.956C3.23561 10.6864 1.59961 8.78165 1.59961 6.50005C1.59968 5.75562 1.83053 5.02952 2.26037 4.42172C2.69021 3.81393 3.2979 3.35433 3.99977 3.10622C4.70164 2.85811 5.46316 2.83369 6.17949 3.03631C6.89581 3.23894 7.53171 3.65865 7.99961 4.23765C8.46751 3.65865 9.10341 3.23894 9.81973 3.03631C10.5361 2.83369 11.2976 2.85811 11.9994 3.10622C12.7013 3.35433 13.309 3.81393 13.7388 4.42172C14.1687 5.02952 14.3995 5.75562 14.3996 6.50005C14.3996 8.78165 12.7644 10.6864 11.2916 11.956C10.3671 12.746 9.36334 13.4382 8.29641 14.0217L8.28121 14.0297L8.27721 14.0321H8.27561C8.19061 14.0771 8.0959 14.1007 7.99971 14.1008C7.90352 14.101 7.80874 14.0776 7.72361 14.0329L7.72201 14.0321Z" fill="#FFE1EA"/>
</svg>
