<svg width="17" height="17" viewBox="0 0 17 17" fill="none" xmlns="http://www.w3.org/2000/svg">
<path d="M13.2844 1.94317C13.2477 1.76232 13.1495 1.59973 13.0067 1.48295C12.8638 1.36617 12.6849 1.30237 12.5004 1.30237C12.3158 1.30237 12.137 1.36617 11.9941 1.48295C11.8512 1.59973 11.7531 1.76232 11.7164 1.94317L11.5244 2.89677C11.4935 3.05167 11.4175 3.19397 11.3059 3.30573C11.1942 3.41748 11.052 3.4937 10.8972 3.52477L9.94358 3.71517C9.76187 3.75111 9.59825 3.84899 9.48066 3.99211C9.36307 4.13524 9.29879 4.31473 9.29879 4.49997C9.29879 4.68521 9.36307 4.8647 9.48066 5.00783C9.59825 5.15095 9.76187 5.24883 9.94358 5.28477L10.8972 5.47517C11.0522 5.5061 11.1946 5.58225 11.3063 5.69402C11.4181 5.80579 11.4943 5.94816 11.5252 6.10317L11.7156 7.05677C11.7515 7.23849 11.8494 7.4021 11.9925 7.51969C12.1357 7.63728 12.3151 7.70156 12.5004 7.70156C12.6856 7.70156 12.8651 7.63728 13.0082 7.51969C13.1514 7.4021 13.2492 7.23849 13.2852 7.05677L13.4756 6.10317C13.5065 5.94816 13.5827 5.80579 13.6944 5.69402C13.8062 5.58225 13.9486 5.5061 14.1036 5.47517L15.0572 5.28477C15.2389 5.24883 15.4025 5.15095 15.5201 5.00783C15.6377 4.8647 15.702 4.68521 15.702 4.49997C15.702 4.31473 15.6377 4.13524 15.5201 3.99211C15.4025 3.84899 15.2389 3.75111 15.0572 3.71517L14.1036 3.52477C13.9486 3.49384 13.8062 3.41769 13.6944 3.30592C13.5827 3.19415 13.5065 3.05178 13.4756 2.89677L13.2852 1.94317H13.2844ZM6.05958 5.04717C6.0066 4.8877 5.90475 4.74896 5.76848 4.65063C5.6322 4.55231 5.46843 4.49939 5.30038 4.49939C5.13234 4.49939 4.96856 4.55231 4.83229 4.65063C4.69602 4.74896 4.59416 4.8877 4.54118 5.04717L3.99478 6.68797C3.95552 6.80592 3.88932 6.9131 3.80141 7.001C3.71351 7.0889 3.60633 7.15511 3.48838 7.19437L1.84758 7.74077C1.68811 7.79375 1.54937 7.8956 1.45105 8.03188C1.35272 8.16815 1.2998 8.33193 1.2998 8.49997C1.2998 8.66801 1.35272 8.83179 1.45105 8.96806C1.54937 9.10434 1.68811 9.20619 1.84758 9.25917L3.48838 9.80637C3.60625 9.84555 3.71337 9.91164 3.80127 9.99939C3.88916 10.0872 3.95542 10.1942 3.99478 10.312L4.54118 11.9528C4.59416 12.1122 4.69602 12.251 4.83229 12.3493C4.96856 12.4476 5.13234 12.5005 5.30038 12.5005C5.46843 12.5005 5.6322 12.4476 5.76848 12.3493C5.90475 12.251 6.0066 12.1122 6.05958 11.9528L6.60598 10.312C6.64524 10.194 6.71145 10.0868 6.79935 9.99894C6.88726 9.91104 6.99443 9.84483 7.11238 9.80557L8.75318 9.25917C8.91266 9.20619 9.0514 9.10434 9.14972 8.96806C9.24805 8.83179 9.30096 8.66801 9.30096 8.49997C9.30096 8.33193 9.24805 8.16815 9.14972 8.03188C9.0514 7.8956 8.91266 7.79375 8.75318 7.74077L7.11238 7.19437C6.99443 7.15511 6.88726 7.0889 6.79935 7.001C6.71145 6.9131 6.64524 6.80592 6.60598 6.68797L6.06038 5.04717H6.05958ZM11.6596 11.4472C11.6066 11.2877 11.5048 11.149 11.3685 11.0506C11.2322 10.9523 11.0684 10.8994 10.9004 10.8994C10.7323 10.8994 10.5686 10.9523 10.4323 11.0506C10.296 11.149 10.1942 11.2877 10.1412 11.4472L9.99398 11.888C9.9548 12.0058 9.88872 12.113 9.80096 12.2009C9.7132 12.2887 9.60618 12.355 9.48838 12.3944L9.04758 12.5408C8.88811 12.5938 8.74937 12.6956 8.65104 12.8319C8.55272 12.9682 8.4998 13.1319 8.4998 13.3C8.4998 13.468 8.55272 13.6318 8.65104 13.7681C8.74937 13.9043 8.88811 14.0062 9.04758 14.0592L9.48838 14.2056C9.60633 14.2448 9.71351 14.311 9.80141 14.3989C9.88932 14.4868 9.95552 14.594 9.99478 14.712L10.1412 15.1528C10.1942 15.3122 10.296 15.451 10.4323 15.5493C10.5686 15.6476 10.7323 15.7005 10.9004 15.7005C11.0684 15.7005 11.2322 15.6476 11.3685 15.5493C11.5048 15.451 11.6066 15.3122 11.6596 15.1528L11.8068 14.712C11.846 14.5941 11.912 14.487 11.9998 14.3991C12.0876 14.3112 12.1946 14.2449 12.3124 14.2056L12.7532 14.0592C12.9127 14.0062 13.0514 13.9043 13.1497 13.7681C13.248 13.6318 13.301 13.468 13.301 13.3C13.301 13.1319 13.248 12.9682 13.1497 12.8319C13.0514 12.6956 12.9127 12.5938 12.7532 12.5408L12.3124 12.3936C12.1945 12.3544 12.0874 12.2883 11.9995 12.2005C11.9116 12.1128 11.8453 12.0058 11.806 11.888L11.6596 11.4472Z" fill="#F3B984"/>
</svg>
