<svg width="16" height="17" viewBox="0 0 16 17" fill="none" xmlns="http://www.w3.org/2000/svg">
<path fill-rule="evenodd" clip-rule="evenodd" d="M6.78806 2.49598C7.32646 1.56238 8.67366 1.56238 9.21206 2.49598L14.2361 11.196C14.7745 12.1296 14.1001 13.296 13.0233 13.296H2.97606C1.89846 13.296 1.22486 12.1296 1.76406 11.196L6.78806 2.49598ZM8.00006 4.49998C8.15919 4.49998 8.3118 4.56319 8.42433 4.67571C8.53685 4.78823 8.60006 4.94085 8.60006 5.09998V7.89998C8.60006 8.05911 8.53685 8.21172 8.42433 8.32424C8.3118 8.43676 8.15919 8.49998 8.00006 8.49998C7.84093 8.49998 7.68832 8.43676 7.5758 8.32424C7.46328 8.21172 7.40006 8.05911 7.40006 7.89998V5.09998C7.40006 4.94085 7.46328 4.78823 7.5758 4.67571C7.68832 4.56319 7.84093 4.49998 8.00006 4.49998ZM8.00006 11.7C8.21223 11.7 8.41572 11.6157 8.56575 11.4657C8.71578 11.3156 8.80006 11.1121 8.80006 10.9C8.80006 10.6878 8.71578 10.4843 8.56575 10.3343C8.41572 10.1843 8.21223 10.1 8.00006 10.1C7.78789 10.1 7.58441 10.1843 7.43438 10.3343C7.28435 10.4843 7.20006 10.6878 7.20006 10.9C7.20006 11.1121 7.28435 11.3156 7.43438 11.4657C7.58441 11.6157 7.78789 11.7 8.00006 11.7Z" fill="#FFE1EA"/>
</svg>
