<svg width="48" height="48" viewBox="0 0 48 48" fill="none" xmlns="http://www.w3.org/2000/svg">
<rect width="48" height="48" rx="24" fill="#F6F7FC"/>
<path fill-rule="evenodd" clip-rule="evenodd" d="M17.2497 21C17.2497 19.2098 17.9609 17.4929 19.2268 16.227C20.4926 14.9612 22.2095 14.25 23.9997 14.25C25.7899 14.25 27.5068 14.9612 28.7727 16.227C30.0386 17.4929 30.7497 19.2098 30.7497 21V21.75C30.7497 23.873 31.5497 25.807 32.8677 27.27C32.9498 27.361 33.0084 27.4707 33.0383 27.5896C33.0682 27.7084 33.0685 27.8328 33.0391 27.9518C33.0098 28.0708 32.9518 28.1808 32.8702 28.2722C32.7885 28.3636 32.6857 28.4335 32.5707 28.476C31.0267 29.046 29.4107 29.466 27.7397 29.719C27.7774 30.2331 27.7086 30.7495 27.5377 31.2359C27.3668 31.7222 27.0974 32.1681 26.7464 32.5457C26.3955 32.9233 25.9704 33.2245 25.4978 33.4304C25.0252 33.6364 24.5152 33.7427 23.9997 33.7427C23.4842 33.7427 22.9742 33.6364 22.5016 33.4304C22.029 33.2245 21.604 32.9233 21.253 32.5457C20.9021 32.1681 20.6327 31.7222 20.4618 31.2359C20.2909 30.7495 20.2221 30.2331 20.2597 29.719C18.6114 29.4692 16.9927 29.0524 15.4287 28.475C15.3139 28.4326 15.2111 28.3627 15.1295 28.2715C15.0479 28.1802 14.9898 28.0703 14.9604 27.9515C14.931 27.8326 14.9312 27.7084 14.9609 27.5896C14.9905 27.4708 15.0489 27.3611 15.1307 27.27C16.4975 25.7567 17.2528 23.7892 17.2497 21.75V21ZM21.7517 29.9C21.7389 30.2032 21.7876 30.5058 21.8948 30.7897C22.002 31.0736 22.1655 31.3329 22.3756 31.5519C22.5856 31.771 22.8377 31.9453 23.1168 32.0644C23.3959 32.1835 23.6963 32.2448 23.9997 32.2448C24.3032 32.2448 24.6035 32.1835 24.8826 32.0644C25.1618 31.9453 25.4139 31.771 25.6239 31.5519C25.8339 31.3329 25.9974 31.0736 26.1046 30.7897C26.2119 30.5058 26.2605 30.2032 26.2477 29.9C24.7521 30.0347 23.2474 30.0347 21.7517 29.9Z" fill="#FFE1EA"/>
</svg>
