<svg width="36" height="36" viewBox="0 0 36 36" fill="none" xmlns="http://www.w3.org/2000/svg">
<g id="icon/premium">
<path id="Vector" d="M28.7641 3.24722C28.6815 2.84032 28.4607 2.47449 28.1393 2.21173C27.8178 1.94896 27.4153 1.80542 27.0001 1.80542C26.5849 1.80542 26.1825 1.94896 25.861 2.21173C25.5395 2.47449 25.3188 2.84032 25.2361 3.24722L24.8041 5.39282C24.7347 5.74135 24.5636 6.06152 24.3125 6.31297C24.0613 6.56443 23.7414 6.73592 23.3929 6.80582L21.2473 7.23422C20.8385 7.31508 20.4703 7.53532 20.2058 7.85735C19.9412 8.17938 19.7965 8.58324 19.7965 9.00002C19.7965 9.41681 19.9412 9.82067 20.2058 10.1427C20.4703 10.4647 20.8385 10.685 21.2473 10.7658L23.3929 11.1942C23.7417 11.2638 24.062 11.4352 24.3135 11.6866C24.565 11.9381 24.7363 12.2585 24.8059 12.6072L25.2343 14.7528C25.3152 15.1617 25.5354 15.5298 25.8575 15.7944C26.1795 16.059 26.5833 16.2036 27.0001 16.2036C27.4169 16.2036 27.8208 16.059 28.1428 15.7944C28.4648 15.5298 28.6851 15.1617 28.7659 14.7528L29.1943 12.6072C29.2639 12.2585 29.4353 11.9381 29.6867 11.6866C29.9382 11.4352 30.2586 11.2638 30.6073 11.1942L32.7529 10.7658C33.1618 10.685 33.5299 10.4647 33.7945 10.1427C34.0591 9.82067 34.2037 9.41681 34.2037 9.00002C34.2037 8.58324 34.0591 8.17938 33.7945 7.85735C33.5299 7.53532 33.1618 7.31508 32.7529 7.23422L30.6073 6.80582C30.2586 6.73624 29.9382 6.56489 29.6867 6.31341C29.4353 6.06193 29.2639 5.74159 29.1943 5.39282L28.7659 3.24722H28.7641ZM12.5083 10.2312C12.3891 9.87241 12.16 9.56025 11.8533 9.33901C11.5467 9.11778 11.1782 8.99872 10.8001 8.99872C10.422 8.99872 10.0535 9.11778 9.74692 9.33901C9.4403 9.56025 9.21114 9.87241 9.09193 10.2312L7.86253 13.923C7.7742 14.1884 7.62523 14.4296 7.42745 14.6273C7.22967 14.8251 6.98852 14.9741 6.72313 15.0624L3.03133 16.2918C2.67252 16.411 2.36035 16.6402 2.13912 16.9468C1.91789 17.2534 1.79883 17.6219 1.79883 18C1.79883 18.3781 1.91789 18.7466 2.13912 19.0532C2.36035 19.3599 2.67252 19.589 3.03133 19.7082L6.72313 20.9394C6.98833 21.0276 7.22935 21.1763 7.42712 21.3737C7.62488 21.5712 7.77396 21.812 7.86253 22.077L9.09193 25.7688C9.21114 26.1276 9.4403 26.4398 9.74692 26.661C10.0535 26.8823 10.422 27.0013 10.8001 27.0013C11.1782 27.0013 11.5467 26.8823 11.8533 26.661C12.16 26.4398 12.3891 26.1276 12.5083 25.7688L13.7377 22.077C13.8261 21.8116 13.975 21.5705 14.1728 21.3727C14.3706 21.1749 14.6117 21.026 14.8771 20.9376L18.5689 19.7082C18.9277 19.589 19.2399 19.3599 19.4611 19.0532C19.6824 18.7466 19.8014 18.3781 19.8014 18C19.8014 17.6219 19.6824 17.2534 19.4611 16.9468C19.2399 16.6402 18.9277 16.411 18.5689 16.2918L14.8771 15.0624C14.6117 14.9741 14.3706 14.8251 14.1728 14.6273C13.975 14.4296 13.8261 14.1884 13.7377 13.923L12.5101 10.2312H12.5083ZM25.1083 24.6312C24.9891 24.2724 24.76 23.9602 24.4533 23.739C24.1467 23.5178 23.7782 23.3987 23.4001 23.3987C23.022 23.3987 22.6535 23.5178 22.3469 23.739C22.0403 23.9602 21.8111 24.2724 21.6919 24.6312L21.3607 25.623C21.2726 25.8882 21.1239 26.1292 20.9264 26.327C20.729 26.5248 20.4882 26.6739 20.2231 26.7624L19.2313 27.0918C18.8725 27.211 18.5604 27.4402 18.3391 27.7468C18.1179 28.0534 17.9988 28.4219 17.9988 28.8C17.9988 29.1781 18.1179 29.5466 18.3391 29.8532C18.5604 30.1599 18.8725 30.389 19.2313 30.5082L20.2231 30.8376C20.4885 30.926 20.7297 31.0749 20.9274 31.2727C21.1252 31.4705 21.2742 31.7116 21.3625 31.977L21.6919 32.9688C21.8111 33.3276 22.0403 33.6398 22.3469 33.861C22.6535 34.0823 23.022 34.2013 23.4001 34.2013C23.7782 34.2013 24.1467 34.0823 24.4533 33.861C24.76 33.6398 24.9891 33.3276 25.1083 32.9688L25.4395 31.977C25.5277 31.7118 25.6764 31.4708 25.8738 31.273C26.0713 31.0753 26.3121 30.9262 26.5771 30.8376L27.5689 30.5082C27.9277 30.389 28.2399 30.1599 28.4611 29.8532C28.6824 29.5466 28.8014 29.1781 28.8014 28.8C28.8014 28.4219 28.6824 28.0534 28.4611 27.7468C28.2399 27.4402 27.9277 27.211 27.5689 27.0918L26.5771 26.7606C26.3119 26.6725 26.0709 26.5238 25.8731 26.3263C25.6754 26.1289 25.5263 25.8881 25.4377 25.623L25.1083 24.6312Z" fill="#F3B984"/>
</g>
</svg>
