<svg width="24" height="24" viewBox="0 0 24 24" fill="none" xmlns="http://www.w3.org/2000/svg">
<g id="fill/logos/twitter-fill">
<path id="Vector" d="M19.7627 7.15388C19.1795 7.41184 18.5611 7.58126 17.9279 7.65652C18.5953 7.25734 19.0949 6.6291 19.3334 5.88888C18.707 6.26166 18.0203 6.52291 17.3045 6.66423C16.8237 6.14981 16.1865 5.80865 15.4918 5.69377C14.7971 5.5789 14.0839 5.69676 13.4631 6.02902C12.8423 6.36128 12.3487 6.88934 12.059 7.53109C11.7693 8.17284 11.6997 8.89233 11.8611 9.5777C10.5908 9.51403 9.34812 9.18393 8.21371 8.60883C7.0793 8.03373 6.07852 7.22649 5.27634 6.23951C4.9924 6.72721 4.84318 7.28163 4.84398 7.84597C4.84398 8.9536 5.40773 9.93215 6.26481 10.5051C5.7576 10.4891 5.26155 10.3521 4.81801 10.1055V10.1453C4.81816 10.883 5.07343 11.5979 5.54053 12.1689C6.00763 12.7398 6.65782 13.1317 7.38085 13.278C6.91 13.4056 6.4163 13.4244 5.9371 13.333C6.14096 13.9679 6.53829 14.5233 7.07346 14.9212C7.60863 15.3191 8.25484 15.5397 8.92162 15.5521C8.25893 16.0725 7.50016 16.4573 6.68868 16.6843C5.8772 16.9113 5.02894 16.9762 4.19238 16.8751C5.65271 17.8143 7.35266 18.3129 9.08891 18.3112C14.9655 18.3112 18.1792 13.443 18.1792 9.22097C18.1792 9.08347 18.1754 8.94444 18.1693 8.80847C18.7948 8.35637 19.3346 7.79633 19.7635 7.15465L19.7627 7.15388Z" fill="white"/>
</g>
</svg>
