<svg width="24" height="24" viewBox="0 0 24 24" fill="none" xmlns="http://www.w3.org/2000/svg">
<path d="M12 15C12.7956 15 13.5587 14.6839 14.1213 14.1213C14.6839 13.5587 15 12.7956 15 12C15 11.2044 14.6839 10.4413 14.1213 9.87868C13.5587 9.31607 12.7956 9 12 9C11.2044 9 10.4413 9.31607 9.87868 9.87868C9.31607 10.4413 9 11.2044 9 12C9 12.7956 9.31607 13.5587 9.87868 14.1213C10.4413 14.6839 11.2044 15 12 15Z" fill="#646D89"/>
<path fill-rule="evenodd" clip-rule="evenodd" d="M0.796268 12.708C0.619994 12.25 0.619994 11.7428 0.796268 11.2848C1.66894 9.02217 3.20641 7.07691 5.20622 5.70514C7.20603 4.33338 9.5744 3.59945 11.9995 3.59998C17.1079 3.59998 21.4711 6.79198 23.2027 11.292C23.3791 11.7492 23.3779 12.2568 23.2027 12.7152C22.33 14.9778 20.7925 16.923 18.7927 18.2948C16.7929 19.6666 14.4245 20.4005 11.9995 20.4C6.89107 20.4 2.52787 17.208 0.796268 12.708ZM16.7995 12C16.7995 13.273 16.2938 14.4939 15.3936 15.3941C14.4934 16.2943 13.2725 16.8 11.9995 16.8C10.7264 16.8 9.50553 16.2943 8.60536 15.3941C7.70518 14.4939 7.19947 13.273 7.19947 12C7.19947 10.7269 7.70518 9.50604 8.60536 8.60586C9.50553 7.70569 10.7264 7.19998 11.9995 7.19998C13.2725 7.19998 14.4934 7.70569 15.3936 8.60586C16.2938 9.50604 16.7995 10.7269 16.7995 12Z" fill="#646D89"/>
</svg>
