<svg width="158" height="32" viewBox="0 0 158 32" fill="none" xmlns="http://www.w3.org/2000/svg">
<rect x="1.09961" y="0.5" width="156.4" height="31" rx="15.5" stroke="#C70039"/>
<g clip-path="url(#clip0_46_1184)">
<path d="M22.6116 20.155C22.8486 20.3046 23.0903 20.4465 23.3365 20.5804L23.3365 20.5805L23.3416 20.5832L23.349 20.5877L23.3637 20.595C23.4981 20.6646 23.6474 20.7008 23.7988 20.7006C23.9034 20.7005 24.0069 20.6829 24.1052 20.649H24.1448L24.2535 20.5838L24.2605 20.5799C25.091 20.1258 25.8722 19.587 26.5918 18.9722L26.5918 18.9722L26.5935 18.9707C27.7169 18.0023 29.098 16.4448 29.098 14.5V14.5C29.098 13.8383 28.8928 13.1928 28.5107 12.6526C28.1286 12.1123 27.5885 11.7038 26.9646 11.4833C26.3407 11.2627 25.6638 11.241 25.027 11.4211C24.5712 11.5501 24.152 11.7779 23.798 12.0858C23.4441 11.7779 23.0249 11.5501 22.569 11.4211C21.9323 11.241 21.2554 11.2627 20.6315 11.4833C20.0076 11.7038 19.4675 12.1123 19.0854 12.6526C18.7033 13.1928 18.4981 13.8383 18.498 14.5V14.5C18.498 16.4448 19.8798 18.0024 21.0025 18.9707L21.0042 18.9721C21.5106 19.4049 22.0478 19.8003 22.6116 20.155ZM22.6116 20.155C22.6115 20.155 22.6114 20.1549 22.6113 20.1548L22.8782 19.7321L22.612 20.1552C22.6119 20.1552 22.6117 20.1551 22.6116 20.155Z" fill="#FF1659" stroke="white"/>
</g>
<g clip-path="url(#clip1_46_1184)">
<path d="M29.8128 20.155C30.0498 20.3046 30.2915 20.4465 30.5377 20.5804L30.5376 20.5805L30.5427 20.5832L30.5502 20.5877L30.5648 20.595C30.6993 20.6646 30.8485 20.7008 31 20.7006C31.1046 20.7005 31.2081 20.6829 31.3063 20.649H31.3459L31.4547 20.5838L31.4617 20.5799C32.2922 20.1258 33.0734 19.587 33.793 18.9722L33.793 18.9722L33.7947 18.9707C34.9181 18.0023 36.2992 16.4448 36.2992 14.5V14.5C36.2992 13.8383 36.094 13.1928 35.7119 12.6526C35.3298 12.1123 34.7896 11.7038 34.1657 11.4833C33.5419 11.2627 32.8649 11.241 32.2282 11.4211C31.7724 11.5501 31.3532 11.7779 30.9992 12.0858C30.6452 11.7779 30.226 11.5501 29.7702 11.4211C29.1335 11.241 28.4566 11.2627 27.8327 11.4833C27.2088 11.7038 26.6686 12.1123 26.2866 12.6526C25.9045 13.1928 25.6993 13.8383 25.6992 14.5V14.5C25.6992 16.4448 27.081 18.0024 28.2037 18.9707L28.2054 18.9721C28.7118 19.4049 29.249 19.8003 29.8128 20.155ZM29.8128 20.155C29.8127 20.155 29.8126 20.1549 29.8125 20.1548L30.0794 19.7321L29.8131 20.1552C29.813 20.1552 29.8129 20.1551 29.8128 20.155Z" fill="#FF1659" stroke="white"/>
</g>
<path d="M43.288 21.144C42.9253 21.144 42.648 21.0427 42.456 20.84C42.264 20.6373 42.168 20.3547 42.168 19.992V10.728C42.168 10.3653 42.2693 10.0827 42.472 9.88C42.6853 9.67733 42.9733 9.576 43.336 9.576C43.656 9.576 43.9067 9.64 44.088 9.768C44.28 9.88533 44.456 10.0933 44.616 10.392L48.312 17.144H47.768L51.464 10.392C51.624 10.0933 51.7947 9.88533 51.976 9.768C52.168 9.64 52.4187 9.576 52.728 9.576C53.0907 9.576 53.368 9.67733 53.56 9.88C53.7627 10.0827 53.864 10.3653 53.864 10.728V19.992C53.864 20.3547 53.768 20.6373 53.576 20.84C53.384 21.0427 53.1067 21.144 52.744 21.144C52.3813 21.144 52.0987 21.0427 51.896 20.84C51.704 20.6373 51.608 20.3547 51.608 19.992V13.512H51.96L48.984 18.84C48.856 19.0427 48.7173 19.1973 48.568 19.304C48.4293 19.4 48.2427 19.448 48.008 19.448C47.7733 19.448 47.5813 19.3947 47.432 19.288C47.2827 19.1813 47.1493 19.032 47.032 18.84L44.024 13.496H44.408V19.992C44.408 20.3547 44.312 20.6373 44.12 20.84C43.9387 21.0427 43.6613 21.144 43.288 21.144ZM60.0236 21.176C59.0956 21.176 58.2956 21.0107 57.6236 20.68C56.9623 20.3387 56.4503 19.864 56.0876 19.256C55.7356 18.6373 55.5596 17.912 55.5596 17.08C55.5596 16.2693 55.7303 15.56 56.0716 14.952C56.413 14.3333 56.8876 13.8533 57.4956 13.512C58.1143 13.16 58.813 12.984 59.5916 12.984C60.157 12.984 60.669 13.08 61.1276 13.272C61.5863 13.4533 61.981 13.72 62.3116 14.072C62.6423 14.4133 62.893 14.8347 63.0636 15.336C63.2343 15.8267 63.3196 16.376 63.3196 16.984C63.3196 17.1867 63.2556 17.3413 63.1276 17.448C62.9996 17.544 62.813 17.592 62.5676 17.592H57.5436V16.344H61.5756L61.3196 16.568C61.3196 16.1307 61.2556 15.768 61.1276 15.48C60.9996 15.1813 60.813 14.9573 60.5676 14.808C60.333 14.6587 60.0396 14.584 59.6876 14.584C59.293 14.584 58.957 14.6747 58.6796 14.856C58.4023 15.0373 58.189 15.2987 58.0396 15.64C57.8903 15.9813 57.8156 16.392 57.8156 16.872V17C57.8156 17.8107 58.0023 18.408 58.3756 18.792C58.7596 19.176 59.325 19.368 60.0716 19.368C60.3276 19.368 60.621 19.336 60.9516 19.272C61.2823 19.208 61.5916 19.1067 61.8796 18.968C62.125 18.8507 62.3436 18.8133 62.5356 18.856C62.7276 18.888 62.877 18.9733 62.9836 19.112C63.0903 19.2507 63.149 19.4107 63.1596 19.592C63.181 19.7733 63.1436 19.9547 63.0476 20.136C62.9516 20.3067 62.7916 20.4507 62.5676 20.568C62.205 20.7707 61.7943 20.92 61.3356 21.016C60.8876 21.1227 60.4503 21.176 60.0236 21.176ZM65.9729 21.144C65.5675 21.144 65.2582 21.0373 65.0449 20.824C64.8315 20.6107 64.7249 20.3067 64.7249 19.912V14.232C64.7249 13.8373 64.8262 13.5387 65.0289 13.336C65.2422 13.1227 65.5355 13.016 65.9089 13.016C66.2929 13.016 66.5862 13.1227 66.7889 13.336C66.9915 13.5387 67.0929 13.8373 67.0929 14.232V15.064H66.9329C67.0609 14.424 67.3435 13.928 67.7809 13.576C68.2182 13.224 68.7835 13.0267 69.4769 12.984C69.7435 12.9627 69.9462 13.032 70.0849 13.192C70.2342 13.3413 70.3142 13.592 70.3249 13.944C70.3462 14.2747 70.2769 14.536 70.1169 14.728C69.9675 14.92 69.7115 15.0373 69.3489 15.08L68.9809 15.112C68.3729 15.1653 67.9195 15.3413 67.6209 15.64C67.3329 15.9387 67.1889 16.3707 67.1889 16.936V19.912C67.1889 20.3067 67.0822 20.6107 66.8689 20.824C66.6662 21.0373 66.3675 21.144 65.9729 21.144ZM72.5666 21.144C72.1613 21.144 71.852 21.0373 71.6386 20.824C71.4253 20.6107 71.3186 20.3067 71.3186 19.912V14.232C71.3186 13.8373 71.42 13.5387 71.6226 13.336C71.836 13.1227 72.1293 13.016 72.5026 13.016C72.8866 13.016 73.18 13.1227 73.3826 13.336C73.5853 13.5387 73.6866 13.8373 73.6866 14.232V15.064H73.5266C73.6546 14.424 73.9373 13.928 74.3746 13.576C74.812 13.224 75.3773 13.0267 76.0706 12.984C76.3373 12.9627 76.54 13.032 76.6786 13.192C76.828 13.3413 76.908 13.592 76.9186 13.944C76.94 14.2747 76.8706 14.536 76.7106 14.728C76.5613 14.92 76.3053 15.0373 75.9426 15.08L75.5746 15.112C74.9666 15.1653 74.5133 15.3413 74.2146 15.64C73.9266 15.9387 73.7826 16.3707 73.7826 16.936V19.912C73.7826 20.3067 73.676 20.6107 73.4626 20.824C73.26 21.0373 72.9613 21.144 72.5666 21.144ZM80.5408 24.024C80.2634 24.024 80.0341 23.9493 79.8528 23.8C79.6714 23.6507 79.5648 23.4533 79.5328 23.208C79.5008 22.9733 79.5434 22.7227 79.6608 22.456L80.7328 20.088V21.08L77.9008 14.584C77.7941 14.3067 77.7568 14.0507 77.7888 13.816C77.8314 13.5707 77.9488 13.3787 78.1408 13.24C78.3434 13.0907 78.6208 13.016 78.9728 13.016C79.2608 13.016 79.4901 13.0853 79.6608 13.224C79.8421 13.352 80.0074 13.6027 80.1568 13.976L82.0448 18.776H81.5328L83.4848 13.96C83.6341 13.5973 83.7994 13.352 83.9808 13.224C84.1728 13.0853 84.4288 13.016 84.7488 13.016C85.0261 13.016 85.2448 13.0907 85.4048 13.24C85.5754 13.3787 85.6768 13.5653 85.7088 13.8C85.7514 14.0347 85.7088 14.2907 85.5808 14.568L81.8208 23.096C81.6608 23.4587 81.4794 23.704 81.2768 23.832C81.0848 23.96 80.8394 24.024 80.5408 24.024ZM92.7568 21.144C92.3941 21.144 92.1168 21.0427 91.9248 20.84C91.7328 20.6373 91.6368 20.3547 91.6368 19.992V10.728C91.6368 10.3653 91.7381 10.0827 91.9408 9.88C92.1541 9.67733 92.4421 9.576 92.8048 9.576C93.1248 9.576 93.3754 9.64 93.5568 9.768C93.7488 9.88533 93.9248 10.0933 94.0848 10.392L97.7808 17.144H97.2368L100.933 10.392C101.093 10.0933 101.263 9.88533 101.445 9.768C101.637 9.64 101.887 9.576 102.197 9.576C102.559 9.576 102.837 9.67733 103.029 9.88C103.231 10.0827 103.333 10.3653 103.333 10.728V19.992C103.333 20.3547 103.237 20.6373 103.045 20.84C102.853 21.0427 102.575 21.144 102.213 21.144C101.85 21.144 101.567 21.0427 101.365 20.84C101.173 20.6373 101.077 20.3547 101.077 19.992V13.512H101.429L98.4528 18.84C98.3248 19.0427 98.1861 19.1973 98.0368 19.304C97.8981 19.4 97.7114 19.448 97.4768 19.448C97.2421 19.448 97.0501 19.3947 96.9008 19.288C96.7514 19.1813 96.6181 19.032 96.5008 18.84L93.4928 13.496H93.8768V19.992C93.8768 20.3547 93.7808 20.6373 93.5888 20.84C93.4074 21.0427 93.1301 21.144 92.7568 21.144ZM108.068 21.176C107.492 21.176 106.975 21.064 106.516 20.84C106.058 20.616 105.7 20.312 105.444 19.928C105.188 19.544 105.06 19.112 105.06 18.632C105.06 18.056 105.21 17.6027 105.508 17.272C105.807 16.9307 106.292 16.6907 106.964 16.552C107.636 16.4027 108.527 16.328 109.636 16.328H110.484V17.576H109.652C109.108 17.576 108.666 17.608 108.324 17.672C107.994 17.7253 107.754 17.8213 107.604 17.96C107.466 18.0987 107.396 18.2907 107.396 18.536C107.396 18.8347 107.498 19.08 107.7 19.272C107.914 19.464 108.218 19.56 108.612 19.56C108.922 19.56 109.194 19.4907 109.428 19.352C109.674 19.2027 109.866 19.0053 110.004 18.76C110.143 18.504 110.212 18.216 110.212 17.896V16.056C110.212 15.5867 110.106 15.256 109.892 15.064C109.679 14.8613 109.316 14.76 108.804 14.76C108.516 14.76 108.202 14.7973 107.86 14.872C107.53 14.936 107.162 15.048 106.756 15.208C106.522 15.3147 106.314 15.3413 106.132 15.288C105.951 15.224 105.812 15.1173 105.716 14.968C105.62 14.808 105.572 14.6373 105.572 14.456C105.572 14.264 105.626 14.0827 105.732 13.912C105.839 13.7307 106.015 13.5973 106.26 13.512C106.762 13.3093 107.231 13.1707 107.668 13.096C108.116 13.0213 108.527 12.984 108.9 12.984C109.722 12.984 110.394 13.1067 110.916 13.352C111.45 13.5867 111.85 13.9547 112.116 14.456C112.383 14.9467 112.516 15.5813 112.516 16.36V19.912C112.516 20.3067 112.42 20.6107 112.228 20.824C112.036 21.0373 111.759 21.144 111.396 21.144C111.034 21.144 110.751 21.0373 110.548 20.824C110.356 20.6107 110.26 20.3067 110.26 19.912V19.32L110.372 19.416C110.308 19.7787 110.17 20.0933 109.956 20.36C109.754 20.616 109.492 20.8187 109.172 20.968C108.852 21.1067 108.484 21.176 108.068 21.176ZM118.175 21.176C117.439 21.176 116.82 21.0533 116.319 20.808C115.828 20.5627 115.46 20.2053 115.215 19.736C114.98 19.2667 114.863 18.6747 114.863 17.96V14.952H114.191C113.892 14.952 113.657 14.872 113.487 14.712C113.327 14.552 113.247 14.3333 113.247 14.056C113.247 13.7573 113.327 13.5333 113.487 13.384C113.657 13.224 113.892 13.144 114.191 13.144H114.863V11.928C114.863 11.5227 114.969 11.2187 115.183 11.016C115.396 10.8027 115.695 10.696 116.079 10.696C116.473 10.696 116.772 10.8027 116.975 11.016C117.177 11.2187 117.279 11.5227 117.279 11.928V13.144H118.799C119.097 13.144 119.327 13.224 119.487 13.384C119.647 13.5333 119.727 13.7573 119.727 14.056C119.727 14.3333 119.647 14.552 119.487 14.712C119.327 14.872 119.097 14.952 118.799 14.952H117.279V17.864C117.279 18.312 117.38 18.648 117.583 18.872C117.796 19.096 118.132 19.208 118.591 19.208C118.751 19.208 118.9 19.192 119.039 19.16C119.177 19.128 119.305 19.1067 119.423 19.096C119.572 19.0853 119.695 19.1333 119.791 19.24C119.887 19.336 119.935 19.5547 119.935 19.896C119.935 20.152 119.892 20.376 119.807 20.568C119.721 20.76 119.572 20.8987 119.359 20.984C119.22 21.0373 119.028 21.08 118.783 21.112C118.548 21.1547 118.345 21.176 118.175 21.176ZM124.533 21.176C123.68 21.176 122.933 21.0107 122.293 20.68C121.664 20.3387 121.179 19.8587 120.837 19.24C120.496 18.6213 120.325 17.8907 120.325 17.048C120.325 16.4187 120.421 15.8533 120.613 15.352C120.805 14.8507 121.083 14.424 121.445 14.072C121.819 13.72 122.267 13.4533 122.789 13.272C123.312 13.08 123.893 12.984 124.533 12.984C124.864 12.984 125.216 13.0267 125.589 13.112C125.963 13.1867 126.331 13.32 126.693 13.512C126.907 13.608 127.051 13.7467 127.125 13.928C127.211 14.0987 127.243 14.28 127.221 14.472C127.2 14.6533 127.131 14.8187 127.013 14.968C126.907 15.1067 126.768 15.2027 126.597 15.256C126.427 15.2987 126.235 15.2667 126.021 15.16C125.819 15.0427 125.605 14.9573 125.381 14.904C125.168 14.8507 124.965 14.824 124.773 14.824C124.453 14.824 124.171 14.8773 123.925 14.984C123.68 15.08 123.472 15.224 123.301 15.416C123.141 15.5973 123.013 15.8267 122.917 16.104C122.832 16.3813 122.789 16.7013 122.789 17.064C122.789 17.768 122.96 18.3227 123.301 18.728C123.653 19.1227 124.144 19.32 124.773 19.32C124.965 19.32 125.168 19.2987 125.381 19.256C125.595 19.2027 125.808 19.1173 126.021 19C126.235 18.8933 126.427 18.8667 126.597 18.92C126.768 18.9733 126.901 19.0747 126.997 19.224C127.104 19.3627 127.163 19.528 127.173 19.72C127.195 19.9013 127.163 20.0827 127.077 20.264C127.003 20.4347 126.864 20.568 126.661 20.664C126.299 20.8453 125.936 20.9733 125.573 21.048C125.211 21.1333 124.864 21.176 124.533 21.176ZM129.566 21.144C129.171 21.144 128.867 21.0373 128.654 20.824C128.451 20.6107 128.35 20.3067 128.35 19.912V10.808C128.35 10.4027 128.451 10.0987 128.654 9.896C128.867 9.68267 129.171 9.576 129.566 9.576C129.95 9.576 130.243 9.68267 130.446 9.896C130.659 10.0987 130.766 10.4027 130.766 10.808V14.616H130.542C130.787 14.0933 131.15 13.6933 131.63 13.416C132.121 13.128 132.675 12.984 133.294 12.984C133.923 12.984 134.441 13.1067 134.846 13.352C135.251 13.5867 135.555 13.9493 135.758 14.44C135.961 14.92 136.062 15.5333 136.062 16.28V19.912C136.062 20.3067 135.955 20.6107 135.742 20.824C135.539 21.0373 135.241 21.144 134.846 21.144C134.462 21.144 134.163 21.0373 133.95 20.824C133.747 20.6107 133.646 20.3067 133.646 19.912V16.392C133.646 15.848 133.545 15.4587 133.342 15.224C133.15 14.9787 132.851 14.856 132.446 14.856C131.934 14.856 131.523 15.016 131.214 15.336C130.915 15.656 130.766 16.0827 130.766 16.616V19.912C130.766 20.7333 130.366 21.144 129.566 21.144ZM139.034 17.528C138.788 17.528 138.596 17.4533 138.458 17.304C138.319 17.1547 138.234 16.936 138.202 16.648L137.69 11.176C137.636 10.696 137.727 10.312 137.962 10.024C138.196 9.72533 138.554 9.576 139.034 9.576C139.492 9.576 139.839 9.72533 140.074 10.024C140.308 10.312 140.399 10.696 140.346 11.176L139.834 16.648C139.802 16.936 139.716 17.1547 139.578 17.304C139.45 17.4533 139.268 17.528 139.034 17.528ZM139.034 21.08C138.607 21.08 138.266 20.952 138.01 20.696C137.764 20.44 137.642 20.1093 137.642 19.704C137.642 19.3093 137.764 18.9893 138.01 18.744C138.266 18.488 138.607 18.36 139.034 18.36C139.46 18.36 139.791 18.488 140.026 18.744C140.271 18.9893 140.394 19.3093 140.394 19.704C140.394 20.1093 140.271 20.44 140.026 20.696C139.791 20.952 139.46 21.08 139.034 21.08Z" fill="#C70039"/>
<defs>
<clipPath id="clip0_46_1184">
<rect width="12" height="12" fill="white" transform="translate(17.7988 10)"/>
</clipPath>
<clipPath id="clip1_46_1184">
<rect width="12" height="12" fill="white" transform="translate(25 10)"/>
</clipPath>
</defs>
</svg>
