<svg width="133" height="32" viewBox="0 0 133 32" fill="none" xmlns="http://www.w3.org/2000/svg">
<rect x="0.5" y="0.5" width="132" height="31" rx="15.5" stroke="#C8CCDB"/>
<path d="M18.016 21.112C17.8133 21.112 17.6587 21.0587 17.552 20.952C17.4453 20.8347 17.392 20.6693 17.392 20.456V10.28C17.392 10.0667 17.4453 9.90133 17.552 9.784C17.6587 9.66667 17.7973 9.608 17.968 9.608C18.1387 9.608 18.2613 9.64 18.336 9.704C18.4213 9.75733 18.5173 9.85867 18.624 10.008L25.6 19.304H25.216V10.248C25.216 10.0453 25.2693 9.89067 25.376 9.784C25.4827 9.66667 25.6373 9.608 25.84 9.608C26.032 9.608 26.176 9.66667 26.272 9.784C26.3787 9.89067 26.432 10.0453 26.432 10.248V20.472C26.432 20.6747 26.384 20.8347 26.288 20.952C26.2027 21.0587 26.0747 21.112 25.904 21.112C25.744 21.112 25.616 21.08 25.52 21.016C25.424 20.952 25.3227 20.8507 25.216 20.712L18.256 11.416H18.624V20.456C18.624 20.6693 18.5707 20.8347 18.464 20.952C18.3573 21.0587 18.208 21.112 18.016 21.112ZM32.2918 21.144C31.5344 21.144 30.8784 20.9787 30.3238 20.648C29.7691 20.3173 29.3371 19.8533 29.0278 19.256C28.7291 18.648 28.5798 17.9333 28.5798 17.112C28.5798 16.4933 28.6651 15.9387 28.8358 15.448C29.0064 14.9467 29.2571 14.52 29.5878 14.168C29.9184 13.816 30.3078 13.5493 30.7558 13.368C31.2144 13.176 31.7264 13.08 32.2918 13.08C33.0491 13.08 33.7051 13.2453 34.2598 13.576C34.8144 13.9067 35.2411 14.376 35.5398 14.984C35.8491 15.5813 36.0038 16.2907 36.0038 17.112C36.0038 17.7307 35.9184 18.2853 35.7478 18.776C35.5771 19.2667 35.3264 19.6933 34.9958 20.056C34.6651 20.408 34.2704 20.68 33.8118 20.872C33.3638 21.0533 32.8571 21.144 32.2918 21.144ZM32.2918 20.104C32.7718 20.104 33.1931 19.9867 33.5558 19.752C33.9184 19.5173 34.1958 19.176 34.3878 18.728C34.5904 18.28 34.6918 17.7413 34.6918 17.112C34.6918 16.1413 34.4731 15.4 34.0358 14.888C33.6091 14.376 33.0278 14.12 32.2918 14.12C31.8011 14.12 31.3744 14.2373 31.0118 14.472C30.6598 14.696 30.3824 15.032 30.1798 15.48C29.9878 15.9173 29.8918 16.4613 29.8918 17.112C29.8918 18.072 30.1104 18.8133 30.5478 19.336C30.9851 19.848 31.5664 20.104 32.2918 20.104ZM40.9923 21.144C40.3843 21.144 39.8723 21.0373 39.4563 20.824C39.0509 20.6 38.7469 20.28 38.5443 19.864C38.3416 19.4373 38.2403 18.92 38.2403 18.312V14.232H37.1683C36.9869 14.232 36.8483 14.1893 36.7523 14.104C36.6562 14.008 36.6082 13.88 36.6082 13.72C36.6082 13.56 36.6562 13.4373 36.7523 13.352C36.8483 13.2667 36.9869 13.224 37.1683 13.224H38.2403V11.384C38.2403 11.1707 38.2989 11.0107 38.4163 10.904C38.5336 10.7867 38.6936 10.728 38.8963 10.728C39.0989 10.728 39.2536 10.7867 39.3603 10.904C39.4776 11.0107 39.5363 11.1707 39.5363 11.384V13.224H41.5523C41.7336 13.224 41.8723 13.2667 41.9683 13.352C42.0643 13.4373 42.1123 13.56 42.1123 13.72C42.1123 13.88 42.0643 14.008 41.9683 14.104C41.8723 14.1893 41.7336 14.232 41.5523 14.232H39.5363V18.184C39.5363 18.792 39.6643 19.256 39.9203 19.576C40.1763 19.8853 40.5923 20.04 41.1683 20.04C41.3709 20.04 41.5416 20.0187 41.6803 19.976C41.8296 19.9333 41.9523 19.912 42.0483 19.912C42.1443 19.9013 42.2243 19.9333 42.2883 20.008C42.3523 20.0827 42.3843 20.2107 42.3843 20.392C42.3843 20.52 42.3576 20.6373 42.3043 20.744C42.2616 20.8507 42.1816 20.9253 42.0643 20.968C41.9363 21.0107 41.7656 21.048 41.5523 21.08C41.3496 21.1227 41.1629 21.144 40.9923 21.144ZM48.407 21.112C48.215 21.112 48.0657 21.0587 47.959 20.952C47.8523 20.8347 47.799 20.6747 47.799 20.472V10.248C47.799 10.0347 47.8523 9.87467 47.959 9.768C48.0657 9.66133 48.215 9.608 48.407 9.608C48.5777 9.608 48.711 9.64533 48.807 9.72C48.9137 9.784 49.0097 9.896 49.095 10.056L53.479 18.312H52.999L57.367 10.056C57.4523 9.896 57.543 9.784 57.639 9.72C57.735 9.64533 57.8737 9.608 58.055 9.608C58.2363 9.608 58.3803 9.66133 58.487 9.768C58.5937 9.87467 58.647 10.0347 58.647 10.248V20.472C58.647 20.6747 58.5937 20.8347 58.487 20.952C58.391 21.0587 58.2417 21.112 58.039 21.112C57.847 21.112 57.6977 21.0587 57.591 20.952C57.4843 20.8347 57.431 20.6747 57.431 20.472V11.48H57.815L53.815 18.984C53.7403 19.1227 53.6603 19.224 53.575 19.288C53.5003 19.3413 53.3883 19.368 53.239 19.368C53.0897 19.368 52.9723 19.336 52.887 19.272C52.8017 19.208 52.727 19.112 52.663 18.984L48.615 11.464H48.999V20.472C48.999 20.6747 48.9457 20.8347 48.839 20.952C48.743 21.0587 48.599 21.112 48.407 21.112ZM63.7265 21.144C63.1932 21.144 62.7132 21.0427 62.2865 20.84C61.8705 20.6267 61.5398 20.3387 61.2945 19.976C61.0492 19.6133 60.9265 19.208 60.9265 18.76C60.9265 18.184 61.0705 17.7307 61.3585 17.4C61.6572 17.0693 62.1425 16.8347 62.8145 16.696C63.4972 16.5573 64.4252 16.488 65.5985 16.488H66.3185V17.336H65.6145C64.7505 17.336 64.0678 17.3787 63.5665 17.464C63.0758 17.5387 62.7292 17.672 62.5265 17.864C62.3345 18.056 62.2385 18.328 62.2385 18.68C62.2385 19.1173 62.3878 19.4747 62.6865 19.752C62.9958 20.0293 63.4118 20.168 63.9345 20.168C64.3612 20.168 64.7345 20.0667 65.0545 19.864C65.3852 19.6613 65.6412 19.384 65.8225 19.032C66.0145 18.68 66.1105 18.2747 66.1105 17.816V15.992C66.1105 15.3307 65.9772 14.856 65.7105 14.568C65.4438 14.2693 65.0065 14.12 64.3985 14.12C64.0252 14.12 63.6518 14.168 63.2785 14.264C62.9052 14.36 62.5105 14.5147 62.0945 14.728C61.9452 14.8027 61.8172 14.8293 61.7105 14.808C61.6038 14.776 61.5185 14.7173 61.4545 14.632C61.3905 14.5467 61.3532 14.4507 61.3425 14.344C61.3318 14.2267 61.3532 14.1147 61.4065 14.008C61.4705 13.9013 61.5665 13.816 61.6945 13.752C62.1638 13.5173 62.6278 13.3467 63.0865 13.24C63.5452 13.1333 63.9825 13.08 64.3985 13.08C65.0705 13.08 65.6252 13.192 66.0625 13.416C66.4998 13.6293 66.8252 13.96 67.0385 14.408C67.2518 14.8453 67.3585 15.4107 67.3585 16.104V20.44C67.3585 20.6533 67.3052 20.8187 67.1985 20.936C67.1025 21.0533 66.9585 21.112 66.7665 21.112C66.5638 21.112 66.4092 21.0533 66.3025 20.936C66.1958 20.8187 66.1425 20.6533 66.1425 20.44V19.192H66.2865C66.2012 19.5973 66.0358 19.944 65.7905 20.232C65.5558 20.52 65.2625 20.744 64.9105 20.904C64.5585 21.064 64.1638 21.144 63.7265 21.144ZM72.8829 21.144C72.2749 21.144 71.7629 21.0373 71.3469 20.824C70.9415 20.6 70.6375 20.28 70.4349 19.864C70.2322 19.4373 70.1309 18.92 70.1309 18.312V14.232H69.0589C68.8775 14.232 68.7389 14.1893 68.6429 14.104C68.5469 14.008 68.4989 13.88 68.4989 13.72C68.4989 13.56 68.5469 13.4373 68.6429 13.352C68.7389 13.2667 68.8775 13.224 69.0589 13.224H70.1309V11.384C70.1309 11.1707 70.1895 11.0107 70.3069 10.904C70.4242 10.7867 70.5842 10.728 70.7869 10.728C70.9895 10.728 71.1442 10.7867 71.2509 10.904C71.3682 11.0107 71.4269 11.1707 71.4269 11.384V13.224H73.4429C73.6242 13.224 73.7629 13.2667 73.8589 13.352C73.9549 13.4373 74.0029 13.56 74.0029 13.72C74.0029 13.88 73.9549 14.008 73.8589 14.104C73.7629 14.1893 73.6242 14.232 73.4429 14.232H71.4269V18.184C71.4269 18.792 71.5549 19.256 71.8109 19.576C72.0669 19.8853 72.4829 20.04 73.0589 20.04C73.2615 20.04 73.4322 20.0187 73.5709 19.976C73.7202 19.9333 73.8429 19.912 73.9389 19.912C74.0349 19.9013 74.1149 19.9333 74.1789 20.008C74.2429 20.0827 74.2749 20.2107 74.2749 20.392C74.2749 20.52 74.2482 20.6373 74.1949 20.744C74.1522 20.8507 74.0722 20.9253 73.9549 20.968C73.8269 21.0107 73.6562 21.048 73.4429 21.08C73.2402 21.1227 73.0535 21.144 72.8829 21.144ZM78.5745 21.144C77.7958 21.144 77.1238 20.9733 76.5585 20.632C75.9932 20.2907 75.5558 19.816 75.2465 19.208C74.9478 18.5893 74.7985 17.8747 74.7985 17.064C74.7985 16.4453 74.8838 15.8907 75.0545 15.4C75.2252 14.9093 75.4758 14.4933 75.8065 14.152C76.1372 13.8 76.5318 13.5333 76.9905 13.352C77.4598 13.1707 77.9878 13.08 78.5745 13.08C78.9585 13.08 79.3585 13.1387 79.7745 13.256C80.1905 13.3733 80.5692 13.576 80.9105 13.864C81.0172 13.9387 81.0865 14.0293 81.1185 14.136C81.1505 14.2427 81.1505 14.3493 81.1185 14.456C81.0865 14.552 81.0332 14.6373 80.9585 14.712C80.8838 14.776 80.7878 14.8133 80.6705 14.824C80.5638 14.8347 80.4518 14.7973 80.3345 14.712C80.0572 14.4987 79.7745 14.3493 79.4865 14.264C79.1985 14.1787 78.9212 14.136 78.6545 14.136C78.2385 14.136 77.8758 14.2053 77.5665 14.344C77.2572 14.472 76.9958 14.6587 76.7825 14.904C76.5692 15.1493 76.4038 15.4533 76.2865 15.816C76.1798 16.1787 76.1265 16.6 76.1265 17.08C76.1265 18.008 76.3452 18.744 76.7825 19.288C77.2198 19.8213 77.8438 20.088 78.6545 20.088C78.9212 20.088 79.1932 20.0453 79.4705 19.96C79.7585 19.8747 80.0465 19.7253 80.3345 19.512C80.4518 19.4267 80.5638 19.3893 80.6705 19.4C80.7772 19.4107 80.8678 19.4533 80.9425 19.528C81.0172 19.592 81.0652 19.6773 81.0865 19.784C81.1185 19.8907 81.1185 19.9973 81.0865 20.104C81.0545 20.2 80.9852 20.2853 80.8785 20.36C80.5372 20.6373 80.1638 20.84 79.7585 20.968C79.3532 21.0853 78.9585 21.144 78.5745 21.144ZM83.3248 21.112C83.1114 21.112 82.9514 21.0533 82.8448 20.936C82.7381 20.8187 82.6848 20.6533 82.6848 20.44V10.264C82.6848 10.0507 82.7381 9.89067 82.8448 9.784C82.9514 9.66667 83.1114 9.608 83.3248 9.608C83.5274 9.608 83.6874 9.66667 83.8048 9.784C83.9221 9.89067 83.9808 10.0507 83.9808 10.264V14.952H83.7728C83.9968 14.3333 84.3594 13.8693 84.8608 13.56C85.3728 13.24 85.9594 13.08 86.6208 13.08C87.2394 13.08 87.7514 13.192 88.1568 13.416C88.5728 13.64 88.8821 13.9813 89.0848 14.44C89.2874 14.888 89.3888 15.4587 89.3888 16.152V20.44C89.3888 20.6533 89.3301 20.8187 89.2128 20.936C89.1061 21.0533 88.9514 21.112 88.7488 21.112C88.5354 21.112 88.3701 21.0533 88.2528 20.936C88.1461 20.8187 88.0928 20.6533 88.0928 20.44V16.232C88.0928 15.5067 87.9488 14.9787 87.6608 14.648C87.3834 14.3067 86.9354 14.136 86.3168 14.136C85.6021 14.136 85.0314 14.36 84.6048 14.808C84.1888 15.2453 83.9808 15.832 83.9808 16.568V20.44C83.9808 20.888 83.7621 21.112 83.3248 21.112ZM97.6315 23.992C97.4715 23.992 97.3435 23.9493 97.2475 23.864C97.1515 23.7787 97.0928 23.6613 97.0715 23.512C97.0608 23.3733 97.0875 23.2293 97.1515 23.08L98.2555 20.6V21.16L95.1835 14.024C95.1195 13.864 95.0982 13.7147 95.1195 13.576C95.1408 13.4373 95.2048 13.3253 95.3115 13.24C95.4182 13.1547 95.5675 13.112 95.7595 13.112C95.9302 13.112 96.0635 13.1493 96.1595 13.224C96.2555 13.2987 96.3408 13.432 96.4155 13.624L99.0395 20.056H98.6075L101.264 13.624C101.349 13.432 101.44 13.2987 101.536 13.224C101.632 13.1493 101.77 13.112 101.952 13.112C102.122 13.112 102.25 13.1547 102.336 13.24C102.432 13.3253 102.485 13.4373 102.496 13.576C102.517 13.704 102.496 13.848 102.432 14.008L98.3355 23.48C98.2502 23.672 98.1542 23.8053 98.0475 23.88C97.9515 23.9547 97.8128 23.992 97.6315 23.992ZM107.517 21.144C106.696 21.144 105.986 20.984 105.389 20.664C104.802 20.3333 104.344 19.8693 104.013 19.272C103.693 18.6747 103.533 17.96 103.533 17.128C103.533 16.3173 103.693 15.6133 104.013 15.016C104.333 14.408 104.77 13.9333 105.325 13.592C105.89 13.2507 106.541 13.08 107.277 13.08C107.8 13.08 108.269 13.1707 108.685 13.352C109.101 13.5227 109.453 13.7733 109.741 14.104C110.04 14.4347 110.264 14.8347 110.413 15.304C110.573 15.7733 110.653 16.3013 110.653 16.888C110.653 17.0587 110.605 17.1867 110.509 17.272C110.413 17.3467 110.274 17.384 110.093 17.384H104.525V16.536H109.789L109.533 16.744C109.533 16.168 109.448 15.6827 109.277 15.288C109.106 14.8827 108.856 14.5733 108.525 14.36C108.205 14.1467 107.8 14.04 107.309 14.04C106.765 14.04 106.301 14.168 105.917 14.424C105.544 14.6693 105.261 15.016 105.069 15.464C104.877 15.9013 104.781 16.4133 104.781 17V17.096C104.781 18.0773 105.016 18.824 105.485 19.336C105.965 19.848 106.642 20.104 107.517 20.104C107.88 20.104 108.237 20.056 108.589 19.96C108.952 19.864 109.304 19.704 109.645 19.48C109.794 19.384 109.928 19.3413 110.045 19.352C110.173 19.352 110.274 19.3893 110.349 19.464C110.424 19.528 110.472 19.6133 110.493 19.72C110.525 19.816 110.514 19.9227 110.461 20.04C110.418 20.1573 110.328 20.2587 110.189 20.344C109.837 20.6 109.421 20.7973 108.941 20.936C108.461 21.0747 107.986 21.144 107.517 21.144ZM115.649 21.144C115.041 21.144 114.529 21.0373 114.113 20.824C113.707 20.6 113.403 20.28 113.201 19.864C112.998 19.4373 112.897 18.92 112.897 18.312V14.232H111.825C111.643 14.232 111.505 14.1893 111.409 14.104C111.312 14.008 111.264 13.88 111.264 13.72C111.264 13.56 111.312 13.4373 111.409 13.352C111.505 13.2667 111.643 13.224 111.825 13.224H112.897V11.384C112.897 11.1707 112.955 11.0107 113.073 10.904C113.19 10.7867 113.35 10.728 113.553 10.728C113.755 10.728 113.91 10.7867 114.017 10.904C114.134 11.0107 114.193 11.1707 114.193 11.384V13.224H116.209C116.39 13.224 116.529 13.2667 116.625 13.352C116.721 13.4373 116.769 13.56 116.769 13.72C116.769 13.88 116.721 14.008 116.625 14.104C116.529 14.1893 116.39 14.232 116.209 14.232H114.193V18.184C114.193 18.792 114.321 19.256 114.577 19.576C114.833 19.8853 115.249 20.04 115.825 20.04C116.027 20.04 116.198 20.0187 116.337 19.976C116.486 19.9333 116.609 19.912 116.705 19.912C116.801 19.9013 116.881 19.9333 116.945 20.008C117.009 20.0827 117.041 20.2107 117.041 20.392C117.041 20.52 117.014 20.6373 116.961 20.744C116.918 20.8507 116.838 20.9253 116.721 20.968C116.593 21.0107 116.422 21.048 116.209 21.08C116.006 21.1227 115.819 21.144 115.649 21.144Z" fill="#646D89"/>
</svg>
