<svg width="44" height="42" viewBox="0 0 44 42" fill="none" xmlns="http://www.w3.org/2000/svg">
<g filter="url(#filter0_d_8235_179)">
<path d="M19.584 27.298L19.578 27.2944L19.5552 27.2824C19.0817 27.0247 18.6166 26.7518 18.1608 26.464C17.074 25.7802 16.0385 25.0181 15.0624 24.184C12.8544 22.2796 10.4004 19.4224 10.4004 16C10.4005 14.8833 10.7468 13.7942 11.3915 12.8825C12.0363 11.9708 12.9478 11.2814 14.0006 10.9092C15.0534 10.537 16.1957 10.5004 17.2702 10.8043C18.3447 11.1083 19.2985 11.7378 20.0004 12.6064C20.7022 11.7378 21.6561 11.1083 22.7306 10.8043C23.8051 10.5004 24.9473 10.537 26.0001 10.9092C27.053 11.2814 27.9645 11.9708 28.6093 12.8825C29.254 13.7942 29.6003 14.8833 29.6004 16C29.6004 19.4224 27.1476 22.2796 24.9384 24.184C23.5516 25.3689 22.046 26.4072 20.4456 27.2824L20.4228 27.2944L20.4168 27.298H20.4144C20.2869 27.3655 20.1448 27.4009 20.0005 27.4011C19.8563 27.4013 19.7141 27.3663 19.5864 27.2992L19.584 27.298Z" fill="white"/>
</g>
<defs>
<filter id="filter0_d_8235_179" x="0.400391" y="0.600464" width="43.1992" height="40.8007" filterUnits="userSpaceOnUse" color-interpolation-filters="sRGB">
<feFlood flood-opacity="0" result="BackgroundImageFix"/>
<feColorMatrix in="SourceAlpha" type="matrix" values="0 0 0 0 0 0 0 0 0 0 0 0 0 0 0 0 0 0 127 0" result="hardAlpha"/>
<feOffset dx="2" dy="2"/>
<feGaussianBlur stdDeviation="6"/>
<feComposite in2="hardAlpha" operator="out"/>
<feColorMatrix type="matrix" values="0 0 0 0 0.249604 0 0 0 0 0.196181 0 0 0 0 0.520833 0 0 0 0.12 0"/>
<feBlend mode="normal" in2="BackgroundImageFix" result="effect1_dropShadow_8235_179"/>
<feBlend mode="normal" in="SourceGraphic" in2="effect1_dropShadow_8235_179" result="shape"/>
</filter>
</defs>
</svg>
